<?xml version="1.0" standalone="no"?>
<!DOCTYPE svg PUBLIC "-//W3C//DTD SVG 1.1//EN" "http://www.w3.org/Graphics/SVG/1.1/DTD/svg11.dtd" >
<svg>
<metadata>
Created by FontForge 20090914 at Mon Aug 15 18:26:39 2016
 By www-data
</metadata>
<defs>
<font id="LarkeSansBold-Regular" horiz-adv-x="812" >
  <font-face 
    font-family="Larke Sans Bold"
    font-weight="700"
    font-stretch="normal"
    units-per-em="2048"
    panose-1="2 0 5 9 0 0 0 0 0 0"
    ascent="1638"
    descent="-410"
    x-height="699"
    cap-height="1054"
    bbox="30 -418 1624 1293"
    underline-thickness="0"
    underline-position="0"
    unicode-range="U+0020-U+00AC"
  />
<missing-glyph horiz-adv-x="1099" 
d="M81 0v1054h925v-1054h-925zM134 48h816v954h-816v-954z" />
    <glyph glyph-name=".notdef" horiz-adv-x="1099" 
d="M81 0v1054h925v-1054h-925zM134 48h816v954h-816v-954z" />
    <glyph glyph-name="space" unicode=" " horiz-adv-x="500" 
 />
    <glyph glyph-name="exclam" unicode="!" horiz-adv-x="320" 
d="M80 0v160h160v-160h-160zM80 215v839h160v-839h-160z" />
    <glyph glyph-name="quotedbl" unicode="&#x22;" horiz-adv-x="546" 
d="M80 1054v-221h157v221h-157zM309 1054v-221h157v221h-157z" />
    <glyph glyph-name="numbersign" unicode="#" horiz-adv-x="948" 
d="M417 1243l-94 -534h-263v-124h241l-20 -116h-221v-124h199l-94 -534h125l94 534h116l-94 -534h125l94 534h263v124h-242l21 116h221v124h-199l94 534h-125l-94 -534h-116l94 534h-125zM426 585h116l-21 -116h-115z" />
    <glyph glyph-name="dollar" unicode="$" horiz-adv-x="966" 
d="M395 1243l-0.000976562 -177.998c-77.333 -8 -144 -33.667 -200 -77c-66 -53.333 -101.667 -123.333 -107 -210c-8 -120.667 41.333 -203.334 148 -248.001c36.667 -16 89.667 -31.667 159 -47v-324c-98 19.333 -186.333 61.333 -265 126l-40 -74.5l-40 -74.5
c104 -77.333 219 -124.666 345 -141.999v-183h160v178c62 6 121 22.333 177 49c40 20 74.167 48.5 102.5 85.5s47.5 78.5 57.5 124.5c16 75.333 8.16699 142.166 -23.5 200.499s-81.834 100.166 -150.501 125.499c-45.333 16.667 -99.666 31.334 -162.999 44.001v279
c80.667 -18.667 149.334 -51.334 206.001 -98.001l81 138c-80 64 -175.667 104.667 -287 122v184h-160zM394.999 902.002v-247.999c-34.667 9.33301 -62.334 18.666 -83.001 27.999c-26.667 13.333 -43.5 31.833 -50.5 55.5s-6 46.667 3 69s22.833 41.5 41.5 57.5
c22.667 18 52.334 30.667 89.001 38zM554.999 449.003c37.333 -8 71.668 -18 103.001 -30c29.333 -12.667 50.333 -31.834 63 -57.501s16 -52.167 10 -79.5c-16.667 -75.333 -75.334 -118.666 -176.001 -129.999v297z" />
    <glyph glyph-name="percent" unicode="%" horiz-adv-x="898" 
d="M400 1010c-38.667 43.333 -86 65 -142 65s-103 -21.5 -141 -64.5s-57 -97.5 -57 -163.5s19 -120.5 57 -163.5s85 -64.5 141 -64.5s103.167 21.5 141.5 64.5s57.5 97.5 57.5 163.5s-19 120.333 -57 163zM660 1054l-9 -16l-268.5 -507.5l-257.5 -486.5l-23 -44h49h69h18
l9 16l526 994l23 44h-50h-68h-18zM258 952c21.333 0 38.332 -7.33105 50.999 -21.998c17.333 -18.667 26 -46.334 26 -83.001s-8.66699 -64.334 -26 -83.001c-13.333 -15.333 -30.333 -23 -51 -23s-37.667 7.66699 -51 23c-16.667 19.333 -25 47 -25 83
c0 35.333 8.66699 63 26 83c12.667 14.667 29.334 22 50.001 22zM780.999 370.002c-38.667 43.333 -86 65 -142 65s-103 -21.5 -141 -64.5s-57 -97.5 -57 -163.5s19 -120.5 57 -163.5s85 -64.5 141 -64.5s103.167 21.5 141.5 64.5s57.5 97.5 57.5 163.5s-19 120.333 -57 163
zM638.999 312.002c22 0 39.334 -7.33301 52.001 -22c16.667 -18 25 -46 25 -84c0 -37.333 -8.33301 -65 -25 -83c-12.667 -14.667 -30 -22 -52 -22c-20.667 0 -37.334 7.33301 -50.001 22c-17.333 20 -26 47.667 -26 83c0 36.667 8.33301 64.667 25 84
c12.667 14.667 29.667 22 51 22z" />
    <glyph glyph-name="ampersand" unicode="&#x26;" horiz-adv-x="916" 
d="M410 1054c-91.333 0 -167.001 -28.167 -227.001 -84.5s-90 -125.5 -90 -207.5c0 -80 29 -147.333 87 -202c-40.667 -28.667 -72.5 -65.167 -95.5 -109.5s-34.5 -90.833 -34.5 -139.5c0 -84 29.167 -156.833 87.5 -218.5s134.833 -92.5 229.5 -92.5h197h162v470h140v153
h-140v133l-162 -32v-101h-158c-49.333 0 -87 13 -113 39c-25.333 25.333 -38 58.666 -38 99.999c0 40.667 13 72.334 39 95.001c28.667 25.333 68.334 38 119.001 38h247v159h-250zM563.999 470l-0.000976562 -310.999h-200c-51.333 0 -89.666 14.333 -114.999 43
c-24.667 28 -37 64.333 -37 109c0 45.333 13.667 82.666 41 111.999c29.333 31.333 69.333 47 120 47h191z" />
    <glyph glyph-name="quotesingle" unicode="'" horiz-adv-x="334" 
d="M117 1054v-162l-67 -123h170l54 111v174h-157z" />
    <glyph glyph-name="parenleft" unicode="(" horiz-adv-x="570" 
d="M530 1293c-48.667 -65.333 -89.5 -124.83 -122.5 -178.497s-63.167 -111.834 -90.5 -174.501s-47.5 -128.167 -60.5 -196.5s-19.5 -141.5 -19.5 -219.5c0 -149.333 23.833 -281.5 71.5 -396.5s121.5 -239.167 221.5 -372.5h-210
c-58.667 84.667 -106.334 162.167 -143.001 232.5s-67 151.666 -91 243.999s-36 189.833 -36 292.5s12 200.167 36 292.5s54.333 173.666 91 243.999s84.334 147.833 143.001 232.5h210z" />
    <glyph glyph-name="parenright" unicode=")" horiz-adv-x="570" 
d="M40 1293c48.667 -65.333 89.5 -124.83 122.5 -178.497s63.167 -111.834 90.5 -174.501s47.5 -128.167 60.5 -196.5s19.5 -141.5 19.5 -219.5c0 -149.333 -23.833 -281.5 -71.5 -396.5s-121.5 -239.167 -221.5 -372.5h210c58.667 84.667 106.334 162.167 143.001 232.5
s67 151.666 91 243.999s36 189.833 36 292.5s-12 200.167 -36 292.5s-54.333 173.666 -91 243.999s-84.334 147.833 -143.001 232.5h-210z" />
    <glyph glyph-name="asterisk" unicode="*" horiz-adv-x="624" 
d="M512 629l-118 143l180 47l-38 117l-173 -67l11 185h-123l10 -185l-172 67l-39 -117l180 -47l-118 -143l100 -73l100 157l100 -157z" />
    <glyph glyph-name="plus" unicode="+" horiz-adv-x="528" 
d="M196 553v-136h-136v-136h136v-135h136v135h136v136h-136v136h-136z" />
    <glyph glyph-name="comma" unicode="," horiz-adv-x="278" 
d="M98 169v-169l-48 -85h126l42 85v169h-120z" />
    <glyph glyph-name="hyphen" unicode="-" horiz-adv-x="526" 
d="M60 417v-42v-52v-42h42h322h42v42v52v42h-42h-322h-42z" />
    <glyph glyph-name="period" unicode="." horiz-adv-x="240" 
d="M60 169v-169h120v169h-120z" />
    <glyph glyph-name="slash" unicode="/" horiz-adv-x="778" 
d="M555 1243l-505 -1432h173l505 1432h-173z" />
    <glyph glyph-name="zero" unicode="0" horiz-adv-x="752" 
d="M608 618c-63.333 70.667 -140.667 106 -232 106s-168.5 -35.333 -231.5 -106s-94.5 -160.334 -94.5 -269.001s31.5 -198.167 94.5 -268.5s140.167 -105.5 231.5 -105.5s168.5 35.167 231.5 105.5s94.5 159.833 94.5 268.5s-31.333 198.334 -94 269.001zM495.999 518
c35.333 -40 53 -96.333 53 -169s-17.667 -129 -53 -169c-30.667 -34.667 -70.667 -52 -120 -52s-89.333 17.333 -120 52c-35.333 40 -53 96.333 -53 169s17.667 129 53 169c30.667 34.667 70.667 52 120 52s89.333 -17.333 120 -52z" />
    <glyph glyph-name="one" unicode="1" horiz-adv-x="518" 
d="M223 699c-4 -31.333 -24.5 -60.333 -61.5 -87s-70.833 -39.667 -101.5 -39v-153c20 1.33301 44.667 8.5 74 21.5s53.333 28.167 72 45.5v-363h-128v-124h380v124h-96v575h-139z" />
    <glyph glyph-name="two" unicode="2" horiz-adv-x="704" 
d="M310 721c-54 -9.33301 -102.998 -29.498 -146.998 -60.498s-78.667 -67.5 -104 -109.5l112 -67c44.667 53.333 98 85.666 160 96.999c17.333 3.33301 37.666 3 60.999 -1s41.666 -11 54.999 -21c26.667 -20.667 40 -45.667 40 -75c0 -28 -13.667 -51 -41 -69
c-24.667 -16 -71 -37.667 -139 -65c-4 -1.33301 -14.167 -5.33301 -30.5 -12s-27.666 -11.5 -33.999 -14.5l-28.5 -13.5c-12.667 -6 -24 -12 -34 -18s-20 -12.667 -30 -20c-30.667 -22 -55 -46.833 -73 -74.5s-27 -64.167 -27 -109.5v-88h604v139h-422
c0 4 0.666992 8.16699 2 12.5s3.66602 8.33301 6.99902 12l10 10.5c3.33301 3.33301 7.83301 6.66602 13.5 9.99902l14.5 8.5c4 2.33301 9.33301 5 16 8s11.667 5.16699 15 6.5l15.5 6.5c7 3 11.5 4.83301 13.5 5.5c10 4 28.833 11 56.5 21s52.167 19.5 73.5 28.5
s40.333 18.5 57 28.5c68 44.667 105.667 98 113 160c6 49.333 0.166992 91 -17.5 125s-45.5 64.667 -83.5 92c-28.667 20.667 -65.167 35.167 -109.5 43.5s-83.833 9.5 -118.5 3.5z" />
    <glyph glyph-name="three" unicode="3" horiz-adv-x="794" 
d="M392 725c-88 0 -161.669 -23.665 -221.002 -70.998c-40 -31.333 -68 -70.666 -84 -117.999l127 -73c16.667 32 37 57.333 61 76c29.333 22.667 68.333 34 117 34c46.667 0 85.667 -11.333 117 -34c29.333 -21.333 44 -50.333 44 -87
c0 -38.667 -13.333 -68.334 -40 -89.001c-29.333 -22.667 -69.666 -34 -120.999 -34h-68v-150h68c60.667 0 107.667 -13 141 -39c32 -24.667 48 -59.334 48 -104.001c0 -42 -17.333 -75.667 -52 -101s-80.334 -38 -137.001 -38c-60 0 -106 12.667 -138 38
c-29.333 24 -52.666 56 -69.999 96l-67 -35.5l-67 -35.5c17.333 -58 49.666 -105 96.999 -141c65.333 -51.333 147 -77 245 -77s179.667 25.667 245 77c71.333 56 107 127.667 107 215c0 52 -16.167 100.667 -48.5 146s-67.166 73.333 -104.499 84
c28 11.333 54.833 35.666 80.5 72.999s38.5 77 38.5 119c0 80 -32.667 146 -98 198c-59.333 47.333 -132.666 71 -219.999 71z" />
    <glyph glyph-name="four" unicode="4" horiz-adv-x="858" 
d="M501 699l-451 -560v-110h427v-299h161v299h160v141h-160v529h-137zM477 439v-269h-220z" />
    <glyph glyph-name="five" unicode="5" horiz-adv-x="802" 
d="M161 699l-61.5 -281.003l-49.5 -224c18 -4.66699 44.833 -12 80.5 -22l80.5 -23c0.666992 1.33301 6 10 16 26c17.333 26.667 40 47.667 68 63s58.333 23 91 23c52.667 0 97.834 -18.667 135.501 -56s56.5 -82.666 56.5 -135.999c0 -52.667 -17.667 -96.667 -53 -132
s-79.666 -53.666 -132.999 -54.999c-40.667 -0.666992 -77.834 9.16602 -111.501 29.499s-57.167 46.5 -70.5 78.5h-160c8.66699 -40 21.167 -73 37.5 -99s37.833 -51.333 64.5 -76c64.667 -59.333 142.667 -89 234 -89c89.333 0 166.333 27 231 81s103 127.667 115 221
c13.333 100.667 -8.83398 187.834 -66.501 261.501s-135.167 114.834 -232.5 123.501c-63.333 5.33301 -121.333 -2.66699 -174 -24l37 168h374v142h-509z" />
    <glyph glyph-name="six" unicode="6" horiz-adv-x="832" 
d="M438 957c-121.333 -2 -213.666 -50.3301 -276.999 -144.997c-52 -76.667 -82.333 -170 -91 -280c-13.333 -161.333 1 -285.333 43 -372c24.667 -50.667 60.834 -92.834 108.501 -126.501s101.167 -52.834 160.5 -57.501c57.333 -4.66699 110.333 1.16602 159 17.499
s88.5 39.666 119.5 69.999s55.667 63.666 74 99.999s29.166 73.5 32.499 111.5c10 110.667 -12.333 200.5 -67 269.5s-132.334 106.833 -233.001 113.5c-87.333 5.33301 -164 -17.667 -230 -69c8.66699 66 31.5 118.5 68.5 157.5s82.5 59.167 136.5 60.5
c36.667 0.666992 69.834 -4.16602 99.501 -14.499s52.167 -21.166 67.5 -32.499s33.333 -27.333 54 -48l39 54.5l39 54.5c-22 32 -59.333 62.833 -112 92.5s-116.334 44.167 -191.001 43.5zM284 456.003c38 36 84.333 54 139 54s101.167 -18 139.5 -54
s57.5 -81.667 57.5 -137s-19.167 -100.833 -57.5 -136.5s-84.833 -53.5 -139.5 -53.5s-101 17.833 -139 53.5s-57 81.167 -57 136.5s19 101 57 137z" />
    <glyph glyph-name="seven" unicode="7" horiz-adv-x="808" 
d="M60 699v-152h508l-421 -817h187l434 854v115h-708z" />
    <glyph glyph-name="eight" unicode="8" horiz-adv-x="806" 
d="M182 887c-64.667 -51.333 -97 -118.666 -97 -201.999c0 -75.333 27.667 -138.333 83 -189c-78.667 -57.333 -118 -132.333 -118 -225c0 -89.333 36 -162.333 108 -219c65.333 -51.333 147 -77 245 -77s179.667 25.667 245 77c72 56.667 108 129.667 108 219
c0 91.333 -39.333 166.333 -118 225c55.333 50.667 83 113.667 83 189c0 83.333 -32.333 150.666 -97 201.999c-59.333 47.333 -133 71 -221 71s-161.667 -23.667 -221 -71zM520 772c30 -22 45.001 -51 45.001 -87c0 -39.333 -13.333 -69.333 -40 -90
c-28.667 -22 -69.334 -33 -122.001 -33c-52 0 -92.333 11 -121 33c-27.333 21.333 -41 51.333 -41 90c0 36 15 65 45 87c31.333 22.667 70.333 34 117 34s85.667 -11.333 117 -34zM545.001 373c31.333 -24 47.002 -58.667 47.002 -104c0 -42.667 -17 -76.334 -51 -101.001
c-36 -26 -82 -39 -138 -39s-102 13 -138 39c-34.667 25.333 -52 59 -52 101c0 44.667 16 79.334 48 104.001c33.333 26 80.666 39 141.999 39s108.666 -13 141.999 -39z" />
    <glyph glyph-name="nine" unicode="9" horiz-adv-x="832" 
d="M394 -258c121.333 2 213.665 50.334 276.998 145.001c52 77.333 82.333 170.333 91 279c13.333 162 -1 286.333 -43 373c-24.667 50.667 -60.834 92.667 -108.501 126s-101.167 52.333 -160.5 57c-57.333 4.66699 -110.333 -1.16602 -159 -17.499
s-88.5 -39.5 -119.5 -69.5s-55.667 -63.167 -74 -99.5s-29.166 -73.5 -32.499 -111.5c-10 -111.333 12.333 -201.5 67 -270.5s132.334 -106.833 233.001 -113.5c86.667 -5.33301 163.334 18 230.001 70c-8.66699 -66 -31.5 -118.5 -68.5 -157.5s-82.5 -59.167 -136.5 -60.5
c-36.667 -0.666992 -69.834 4.16602 -99.501 14.499s-52.167 21.166 -67.5 32.499s-33.333 27.333 -54 48l-39 -54.5l-39 -54.5c22 -32 59.333 -62.833 112 -92.5s116.334 -44.167 191.001 -43.5zM547.999 242.001c-38 -36 -84.333 -54 -139 -54s-101.167 18 -139.5 54
s-57.5 81.667 -57.5 137s19.167 101 57.5 137s84.833 54 139.5 54s101 -18 139 -54s57 -81.667 57 -137s-19 -101 -57 -137z" />
    <glyph glyph-name="colon" unicode=":" horiz-adv-x="276" 
d="M60 699v-219h156v219h-156zM60 218v-218h156v218h-156z" />
    <glyph glyph-name="semicolon" unicode=";" horiz-adv-x="330" 
d="M113 699v-219h157v219h-157zM113 218v-216l-63 -113h166l54 113v216h-157z" />
    <glyph glyph-name="less" unicode="&#x3c;" horiz-adv-x="650" 
d="M378 699l-14 -14l-293 -303l-31 -33l32 -32l304 -304l13 -13h19h89h113l-81 79l-276 271l265 271l77 78h-110h-87h-20z" />
    <glyph glyph-name="equal" unicode="=" horiz-adv-x="576" 
d="M60 530v-131h456v131h-456zM60 300v-132h456v132h-456z" />
    <glyph glyph-name="greater" unicode="&#x3e;" horiz-adv-x="650" 
d="M55 699l77 -78l265 -271l-277 -271l-80 -79h113h89h19l13 13l304 304l32 32l-31 33l-293 303l-14 14h-20h-87h-110z" />
    <glyph glyph-name="question" unicode="?" horiz-adv-x="660" 
d="M252 1053c-51.333 0 -100.001 -5.33301 -146.001 -16l-36 -10v-153c26.667 8.66699 47 14.334 61 17.001c90.667 19.333 164.334 15.666 221.001 -11.001s85.334 -77.334 86.001 -152.001c0.666992 -51.333 -17.833 -93.666 -55.5 -126.999s-95.167 -50.333 -172.5 -51
l-106 1v-336h161v182c107.333 6 191.666 39.167 252.999 99.5s92 137.5 92 231.5c0 98 -28.667 176.667 -86 236s-148 89 -272 89zM103.999 160v-160h161v160h-161z" />
    <glyph glyph-name="at" unicode="@" horiz-adv-x="1596" 
d="M798 -243c111.333 0 216.668 21.667 316.001 65l66 28l-47 55l-52 62l-24 28l-35 -13c-68.667 -25.333 -143.334 -38 -224.001 -38c-166 0 -299.667 49.667 -401 149c-106.667 104.667 -160 248.667 -160 432s53.333 327.333 160 432c10 10 20.333 19.333 31 28
c98 80.667 221.333 121 370 121c166 0 299.667 -49.667 401 -149c107.333 -105.333 161 -249.333 161 -432c0 -90 -12.667 -170 -38 -240c-11.333 -29.333 -25.666 -51 -42.999 -65c-14 -10.667 -29.667 -14.667 -47 -12c-9.33301 1.33301 -18 6.16602 -26 14.499
s-12 21.166 -12 38.499v282c0 144 -34.667 256 -104 336c-34.667 36 -77.667 63.667 -129 83s-105.666 27.666 -162.999 24.999c-148.667 -8 -279 -62.667 -391 -164l92 -124c90 78.667 189 118.334 297 119.001c24 -2 46.5 -6.33301 67.5 -13s42.333 -18 64 -34
s38.667 -40 51 -72s18.166 -74 17.499 -126c-70.667 50 -144.334 77 -221.001 81c-103.333 8.66699 -193.333 -12.666 -270 -63.999c-86 -60 -126.333 -140.667 -121 -242c4.66699 -91.333 45 -159.333 121 -204c68 -46.667 158.333 -69 271 -67
c44.667 1.33301 92.834 9 144.501 23s90.5 30.333 116.5 49c12.667 -26 28.667 -48 48 -66c33.333 -31.333 75 -49.666 125 -54.999c70 -8 131.333 8.33301 184 49c42 32.667 75.667 82 101 148c34 92 51 192 51 300c0 113.333 -19.833 218.333 -59.5 315
s-93.334 177.834 -161.001 243.501s-147 116.834 -238 153.501s-187.5 55 -289.5 55s-198.5 -18.333 -289.5 -55s-170.333 -87.834 -238 -153.501s-121.334 -146.834 -161.001 -243.501s-59.5 -201.667 -59.5 -315s19.833 -218.5 59.5 -315.5
s93.334 -178.167 161.001 -243.5s147 -116.5 238 -153.5s187.5 -55.5 289.5 -55.5zM750.002 493l16.999 -0.00292969c45.333 -3.33301 89.833 -14.833 133.5 -34.5s78.167 -46.167 103.5 -79.5v-73c-28.667 -20.667 -64 -37.167 -106 -49.5s-83.667 -19.166 -125 -20.499
c-49.333 -1.33301 -94.166 9.33398 -134.499 32.001s-62.166 51.334 -65.499 86.001c-4 47.333 12.167 82.5 48.5 105.5s79.166 34.167 128.499 33.5z" />
    <glyph glyph-name="A" unicode="A" horiz-adv-x="1086" 
d="M466 1054l-436 -1054h179l57.5 139.5l57.5 140.5h438l57.5 -140l57.5 -140h179l-436 1054h-154zM543 813l156 -380h-312z" />
    <glyph glyph-name="B" unicode="B" horiz-adv-x="894" 
d="M60 1054l0.000976562 -1054h468c63.333 0 119.333 14.833 168 44.5s85.5 67.834 110.5 114.501s37.5 97.334 37.5 152.001c0 48.667 -11.333 95.167 -34 139.5s-54.334 80.833 -95.001 109.5c58 54.667 87 122 87 202c0 82 -30 151.167 -90 207.5
s-135.667 84.5 -227 84.5h-425zM222.001 894.998l260 0.000976562c50 0 89.333 -12.667 118 -38c26 -22.667 39 -54.334 39 -95.001c0 -42 -12.333 -75.333 -37 -100c-26 -26 -64 -39 -114 -39h-266v272zM222.001 469.999l298.999 -0.00195312
c50.667 0 90.667 -15.667 120 -47c27.333 -29.333 41 -66.666 41 -111.999s-12 -81.666 -36 -108.999c-25.333 -28.667 -63.666 -43 -114.999 -43h-309v311z" />
    <glyph glyph-name="C" unicode="C" horiz-adv-x="1124" 
d="M576 1066c-71.333 0 -139 -13.002 -203 -39.002s-119.833 -62.167 -167.5 -108.5s-85.5 -103.333 -113.5 -171s-42 -141.167 -42 -220.5s14 -152.833 42 -220.5s65.833 -124.667 113.5 -171s103.5 -82.5 167.5 -108.5s131.667 -39 203 -39c97.333 0 186.833 23 268.5 69
s145.167 110 190.5 192l39 72h-182c-6 -10 -10.667 -17.333 -14 -22c-16 -23.333 -30 -40.666 -42 -51.999c-65.333 -64 -152 -96 -260 -96c-107.333 0 -193.666 32 -258.999 96c-69.333 68 -104 161.333 -104 280s34.667 212 104 280c65.333 64 151.666 96 258.999 96
c108 0 194.667 -32 260 -96c12 -11.333 26 -28.666 42 -51.999l14 -22h182l-39 72c-45.333 82 -108.833 146 -190.5 192s-171.167 69 -268.5 69z" />
    <glyph glyph-name="D" unicode="D" horiz-adv-x="946" 
d="M60 1054v-1054h291c76.667 0 149 14 217 42s125.833 65.667 173.5 113s85.334 103.333 113.001 168s41.5 132.667 41.5 204s-13.833 139.333 -41.5 204s-65.334 120.667 -113.001 168s-105.5 85 -173.5 113s-140.333 42 -217 42h-291zM226 895h115
c118 0 212.333 -34.667 283 -104s106 -157.333 106 -264s-35.333 -194.667 -106 -264s-165 -104 -283 -104h-115v736z" />
    <glyph glyph-name="E" unicode="E" 
d="M60 1054v-1054h692v154h-529v308h471v148h-471v293h529v151h-692z" />
    <glyph glyph-name="F" unicode="F" 
d="M60 1054v-1054h163v462h471v148h-471v293h529v151h-692z" />
    <glyph glyph-name="G" unicode="G" horiz-adv-x="1120" 
d="M576 1066c-71.333 0 -139.001 -12.999 -203.001 -38.999s-119.833 -62.167 -167.5 -108.5s-85.5 -103.333 -113.5 -171s-42 -141.167 -42 -220.5s14 -152.833 42 -220.5s65.833 -124.667 113.5 -171s103.5 -82.5 167.5 -108.5s131.667 -39 203 -39
c122.667 0 231.667 38.667 327 116v-105h157v553h-428v-148h265v-86c-7.33301 -13.333 -28 -37 -62 -71c-65.333 -64 -151.666 -96 -258.999 -96c-108 0 -194.667 32 -260 96c-68.667 67.333 -103 160.666 -103 279.999s34.333 212.666 103 279.999c65.333 64 152 96 260 96
c106.667 0 192.667 -32 258 -96c12 -11.333 26 -28.666 42 -51.999l15 -22h169c-2.66699 20 -11.667 44 -27 72c-45.333 82 -108.5 146 -189.5 192s-170.167 69 -267.5 69z" />
    <glyph glyph-name="H" unicode="H" horiz-adv-x="924" 
d="M60 1054v-1054h162v457h480v-457h162v1054h-162v-444h-480v444h-162z" />
    <glyph glyph-name="I" unicode="I" horiz-adv-x="322" 
d="M80 1054v-1054h162v1054h-162z" />
    <glyph glyph-name="J" unicode="J" horiz-adv-x="732" 
d="M510 1054l0.000976562 -719c0 -58.667 -15 -104 -45 -136c-32.667 -34.667 -79.334 -52 -140.001 -52c-61.333 0 -115 21.333 -161 64l-45 42l-79 -139l27 -26c70.667 -66.667 158 -100 262 -100c94 0 172.333 26.667 235 80c72 61.333 108 148 108 260v726h-162z" />
    <glyph glyph-name="K" unicode="K" horiz-adv-x="930" 
d="M60 1054v-1054h163v445l445 -445h232l-536 528l517 526h-229l-429 -443v443h-163z" />
    <glyph glyph-name="L" unicode="L" horiz-adv-x="792" 
d="M60 1054v-1054h692v153h-529v901h-163z" />
    <glyph glyph-name="M" unicode="M" horiz-adv-x="1136" 
d="M60 1054v-1054h163v620l269 -620h152l269 620v-620h163v1054h-155l-353 -818l-353 818h-155z" />
    <glyph glyph-name="N" unicode="N" horiz-adv-x="956" 
d="M60 1054v-1054h162v738l517 -738h157v1054h-162v-760l-535 760h-139z" />
    <glyph glyph-name="O" unicode="O" horiz-adv-x="1152" 
d="M779 1027c-64 26 -131.667 39 -203 39s-139 -13 -203 -39s-119.833 -62.167 -167.5 -108.5s-85.5 -103.333 -113.5 -171s-42 -141.167 -42 -220.5s14 -152.833 42 -220.5s65.833 -124.667 113.5 -171s103.5 -82.5 167.5 -108.5s131.667 -39 203 -39s139 13 203 39
s119.833 62.167 167.5 108.5s85.5 103.333 113.5 171s42 141.167 42 220.5s-14 152.833 -42 220.5s-65.833 124.667 -113.5 171s-103.5 82.5 -167.5 108.5zM835 807c69.333 -68 104 -161.333 104 -280s-34.667 -212 -104 -280c-65.333 -64 -151.666 -96 -258.999 -96
s-193.666 32 -258.999 96c-69.333 68 -104 161.333 -104 280s34.667 212 104 280c65.333 64 151.666 96 258.999 96s193.666 -32 258.999 -96z" />
    <glyph glyph-name="P" unicode="P" horiz-adv-x="844" 
d="M60 1054v-1054h166v385h215c100.667 0 184.667 32.5 252 97.5s101 144.167 101 237.5s-32.833 172.333 -98.5 237s-150.5 97 -254.5 97h-381zM226 895h208c60.667 0 108.667 -16.333 144 -49s53 -74.667 53 -126c0 -52 -17.5 -94.333 -52.5 -127s-83.167 -49 -144.5 -49
h-208v351z" />
    <glyph glyph-name="Q" unicode="Q" horiz-adv-x="1180" 
d="M576 -12c122 0 229 34.334 321 103.001l93 -91h230l-210 208c61.333 89.333 92 195.666 92 318.999c0 79.333 -14 152.833 -42 220.5s-65.833 124.667 -113.5 171s-103.5 82.5 -167.5 108.5s-131.667 39 -203 39s-139 -13 -203 -39s-119.833 -62.167 -167.5 -108.5
s-85.5 -103.333 -113.5 -171s-42 -141.167 -42 -220.5s14 -152.833 42 -220.5s65.833 -124.667 113.5 -171s103.5 -82.5 167.5 -108.5s131.667 -39 203 -39zM576 903.001c107.333 0 193.667 -31.998 259 -95.998c69.333 -68 104 -161.333 104 -280
c0 -76.667 -15.333 -144 -46 -202l-101 101h-230l220 -221c-57.333 -36 -126 -54 -206 -54c-108 0 -194.667 32 -260 96c-68.667 67.333 -103 160.666 -103 279.999s34.333 212.666 103 279.999c65.333 64 152 96 260 96z" />
    <glyph glyph-name="R" unicode="R" horiz-adv-x="876" 
d="M60 1054v-1054h166v423h211l208 -423h181l-226 455c58.667 24.667 105.5 62.167 140.5 112.5s52.5 107.5 52.5 171.5c0 96 -32 172.333 -96 229c-64.667 57.333 -150 86 -256 86h-381zM226 895l208.001 -0.000976562c61.333 0 110 -14.667 146 -44
c34 -27.333 51 -64.666 51 -111.999c0 -46 -17 -83.333 -51 -112c-34.667 -29.333 -83.334 -44 -146.001 -44h-208v312z" />
    <glyph glyph-name="S" unicode="S" horiz-adv-x="966" 
d="M438 1067c-98 -0.666992 -179.001 -26.9941 -243.001 -78.9941c-66 -53.333 -101.667 -123.333 -107 -210c-8 -120.667 41.333 -203.334 148 -248.001c52.667 -22.667 127.834 -43.334 225.501 -62.001s163.167 -35 196.5 -49c29.333 -12.667 50.333 -31.834 63 -57.501
s16 -52.167 10 -79.5c-20 -88.667 -98 -133 -234 -133c-136.667 0 -259 45.333 -367 136l-40 -74.5l-40 -74.5c132.667 -98.667 281 -148.334 445 -149.001c90 0 169 17 237 51c40 20 74.167 48.5 102.5 85.5s47.5 78.5 57.5 124.5c16 75.333 8.16699 142.166 -23.5 200.499
s-81.834 100.166 -150.501 125.499c-48 17.333 -120.5 35.833 -217.5 55.5s-159.833 37.167 -188.5 52.5c-26.667 13.333 -43.5 31.833 -50.5 55.5s-6 46.667 3 69s22.833 41.5 41.5 57.5c34 28.667 83.333 43.667 148 45c54.667 0.666992 110.334 -9.5 167.001 -30.5
s103.334 -47.5 140.001 -79.5l81 138c-110.667 88.667 -245.334 132 -404.001 130z" />
    <glyph glyph-name="T" unicode="T" horiz-adv-x="885" 
d="M40 1054v-146h321v-908h163v908h321v146h-805z" />
    <glyph glyph-name="U" unicode="U" horiz-adv-x="976" 
d="M50 1054l0.00195312 -610c0 -128.667 42.667 -236.834 128 -324.501s188.666 -131.5 309.999 -131.5s224.666 43.833 309.999 131.5s128 195.834 128 324.501v610h-164v-600c0 -87.333 -26.333 -159.5 -79 -216.5s-117.667 -85.5 -195 -85.5s-142.333 28.5 -195 85.5
s-79 129.167 -79 216.5v600h-164z" />
    <glyph glyph-name="V" unicode="V" horiz-adv-x="1086" 
d="M30 1054l436 -1054h154l436 1054h-179l-334 -813l-334 813h-179z" />
    <glyph glyph-name="W" unicode="W" horiz-adv-x="1654" 
d="M30 1054l372 -1054h156l269 770l269 -770h156l372 1054h-182l-269 -778l-267 778h-158l-267 -777l-269 777h-182z" />
    <glyph glyph-name="X" unicode="X" horiz-adv-x="1166" 
d="M30 1054l441 -527l-441 -527h216l337 404l337 -404h216l-441 527l441 527h-216l-337 -405l-337 405h-216z" />
    <glyph glyph-name="Y" unicode="Y" horiz-adv-x="1064" 
d="M30 1054l421 -620v-434h163v434l420 620h-205l-297 -448l-297 448h-205z" />
    <glyph glyph-name="Z" unicode="Z" horiz-adv-x="936" 
d="M886 1054h-800v-159h565l-601 -783v-112h836v159h-580l580 771v124z" />
    <glyph glyph-name="bracketleft" unicode="[" horiz-adv-x="440" 
d="M70 1243v-1432h310v148h-144v1136h144v148h-310z" />
    <glyph glyph-name="backslash" unicode="\" horiz-adv-x="778" 
d="M223 1243l505 -1432h-173l-505 1432h173z" />
    <glyph glyph-name="bracketright" unicode="]" horiz-adv-x="440" 
d="M60 1243v-148h144v-1136h-144v-148h310v1432h-310z" />
    <glyph glyph-name="asciicircum" unicode="^" horiz-adv-x="554" 
d="M273 1054l-233 -233h160l74 75l76 -75h164z" />
    <glyph glyph-name="underscore" unicode="_" horiz-adv-x="916" 
d="M50 0v-47v-49v-47h47h721h48v47v49v47h-48h-721h-47z" />
    <glyph glyph-name="grave" unicode="`" horiz-adv-x="336" 
d="M253 1054l23 -261h-122l-114 261h213z" />
    <glyph glyph-name="a" unicode="a" horiz-adv-x="776" 
d="M382 723c-60.667 -2.66699 -117.333 -14.833 -170 -36.5s-94.667 -47.834 -126 -78.501c9.33301 -15.333 21.333 -32.333 36 -51s26.667 -36 36 -52c65.333 53.333 139 80 221 80c18.667 -0.666992 38.667 -3.66699 60 -9c20 -5.33301 39 -15 57 -29
c18.667 -13.333 35 -34.333 49 -63c12 -24 18 -57.667 18 -101c-56 40.667 -117 63.667 -183 69c-86.667 6.66699 -161 -11.666 -223 -54.999c-71.333 -50 -104.666 -115.333 -99.999 -196c4 -75.333 37.333 -132.333 100 -171c56 -38.667 130.667 -57 224 -55
c32.667 0.666992 69 8.16699 109 22.5s69.333 27.833 88 40.5l10 -38h138v42v316c0 118 -28.667 211 -86 279c-28 30 -66.333 52.333 -115 67s-96.334 21 -143.001 19zM569.001 222.001l0.00292969 -58.001c-50.667 -36.667 -114 -56 -190 -58
c-40.667 -1.33301 -77.834 7.33398 -111.501 26.001s-51.834 43.334 -54.501 74.001c-3.33301 41.333 12 70.833 46 88.5s72 25.167 114 22.5c37.333 -2.66699 74.166 -12.334 110.499 -29.001s64.833 -38.667 85.5 -66z" />
    <glyph glyph-name="b" unicode="b" horiz-adv-x="819" 
d="M425 -24c-77.333 -1.33301 -151.333 20.332 -222 64.999l-10 -41h-133v1054h159v-372c58 29.333 116.667 45 176 47c104.667 4 193.167 -28.333 265.5 -97s108.5 -159 108.5 -271c0 -110.667 -30.833 -202.167 -92.5 -274.5s-145.5 -109.166 -251.5 -110.499z
M388 127.998c66 0 118.669 18.667 158.002 56c40.667 38.667 61 93.667 61 165s-20.333 126.333 -61 165c-39.333 37.333 -92 56 -158 56c-34.667 0 -67.834 -7.16699 -99.501 -21.5s-54.834 -30.5 -69.501 -48.5v-303c18 -20 41.833 -36.5 71.5 -49.5
s62.167 -19.5 97.5 -19.5z" />
    <glyph glyph-name="c" unicode="c" 
d="M415 724c-101.333 0 -187.5 -35.1689 -258.5 -105.502s-106.5 -160.166 -106.5 -269.499s35.5 -199 106.5 -269s157.167 -105 258.5 -105c80 0 151.833 22.667 215.5 68s107.5 106.333 131.5 183h-166c-10 -17.333 -20.333 -30.666 -31 -39.999
c-37.333 -36 -87.333 -54 -150 -54c-62 0 -111.667 18 -149 54c-39.333 38 -59 92.333 -59 163s19.667 125 59 163c38 36.667 87.667 55 149 55c62 0 112 -18.333 150 -55c10 -8.66699 20 -21.667 30 -39h167c-24 76.667 -67.833 137.667 -131.5 183s-135.5 68 -215.5 68z
" />
    <glyph glyph-name="d" unicode="d" horiz-adv-x="819" 
d="M394 -24c77.333 -1.33301 151.333 20.332 222 64.999l10 -41h133v1054h-159v-372c-58 29.333 -116.667 45 -176 47c-104.667 4 -193.167 -28.333 -265.5 -97s-108.5 -159 -108.5 -271c0 -110.667 30.833 -202.167 92.5 -274.5s145.5 -109.166 251.5 -110.499z
M431 127.998c-66 0 -118.669 18.667 -158.002 56c-40.667 38.667 -61 93.667 -61 165s20.333 126.333 61 165c39.333 37.333 92 56 158 56c34.667 0 67.834 -7.16699 99.501 -21.5s54.834 -30.5 69.501 -48.5v-303c-18 -20 -41.833 -36.5 -71.5 -49.5
s-62.167 -19.5 -97.5 -19.5z" />
    <glyph glyph-name="e" unicode="e" horiz-adv-x="824" 
d="M415 721c-101.333 0 -187.5 -34.999 -258.5 -104.999s-106.5 -159.667 -106.5 -269c0 -110 34.667 -199 104 -267s155 -102 257 -102c70 0 135.167 16 195.5 48s106.5 76.333 138.5 133c6.66699 12.667 12.334 24.334 17.001 35.001l-179 6
c-42.667 -47.333 -100 -70 -172 -68c-52 1.33301 -95.333 15.666 -130 42.999s-55.334 64.333 -62.001 111h553c0.666992 4 1.16699 11.167 1.5 21.5s0.5 17.833 0.5 22.5v22c0 109.333 -34.667 198.166 -104 266.499s-154.333 102.5 -255 102.5zM415 570.001
c54.667 0 101.335 -17 140.002 -51c26 -24 44.333 -56 55 -96h-392c11.333 38 29.666 70 54.999 96c39.333 34 86.666 51 141.999 51z" />
    <glyph glyph-name="f" unicode="f" horiz-adv-x="594" 
d="M143 0c0 22 0.331055 114.166 0.998047 276.499s0.333984 256.833 -0.999023 283.5h-93v139h93v89c0 54 5.66699 95.667 17 125c21.333 55.333 63 93 125 113c36 10.667 73.833 12.834 113.5 6.50098s75.834 -20.5 108.501 -42.5l37 -24l-35 -63.5
c-15.333 -28.333 -26.666 -49.833 -33.999 -64.5c-22 18 -45.333 31 -70 39s-47.334 7 -68.001 -3c-14.667 -10 -23.834 -24.167 -27.501 -42.5s-5.5 -44.5 -5.5 -78.5v-13v-7v-8v-10v-15v-1h196v-139h-196c1.33301 -22 1.33301 -115.667 0 -281
s-1.66602 -258.333 -0.999023 -279h-160z" />
    <glyph glyph-name="g" unicode="g" horiz-adv-x="817" 
d="M392 727c-104 -1.33301 -187 -38.167 -249 -110.5s-93 -163.833 -93 -274.5c0 -112 35.667 -202.333 107 -271s159.333 -101 264 -97c49.333 1.33301 108.333 19.666 177 54.999v0v0v0v0v0v-1v0v0v-1v0v-1v0v-1v-1v0v-1v-1v-1v-1v-1v-1v-1v-1v-1v-1v-1v-1v-1v-1v-1v-1v-1
v-1v-1v-1v-1v-1v-1v-1v-1v-1v-1v-1v-9c0 -62 -20 -108.333 -60 -139s-86.333 -45 -139 -43c-41.333 2 -83.166 13.667 -125.499 35s-79.5 48.333 -111.5 81l-41.5 -63.5l-41.5 -63.5c44.667 -44.667 97.334 -80 158.001 -106s114.667 -39.333 162 -40
c54 -0.666992 102.167 6.33301 144.5 21s76.666 33.667 102.999 57s48 51.5 65 84.5s28.833 65.667 35.5 98s10 66.5 10 102.5v689h-133l-11 -38c-70.667 44.667 -144.334 66.334 -221.001 65.001zM429 574.999c34.667 0 67.002 -6.66699 97.002 -20s54 -30 72 -50v-303
c-14.667 -18 -37.834 -34 -69.501 -48s-64.834 -21 -99.501 -21c-66 0 -118.667 18.667 -158 56c-40.667 38.667 -61 93.667 -61 165s20.333 126.333 61 165c39.333 37.333 92 56 158 56z" />
    <glyph glyph-name="h" unicode="h" horiz-adv-x="768" 
d="M220 0v500.001c41.333 43.333 95.333 66.666 162 69.999c57.333 2.66699 103 -12.333 137 -45c28.667 -27.333 43 -68 43 -122v-403h156v0v0v0v0v0v0v0v0v0v0v0v0v0v0v0v0v0v0v0v0v0v0v0v0v411v9c0 97.333 -29.333 173.5 -88 228.5s-134.667 79.833 -228 74.5
c-77.333 -4.66699 -138 -29 -182 -73v404h-160v-1054h160z" />
    <glyph glyph-name="i" unicode="i" horiz-adv-x="320" 
d="M80 917v-160h160v160h-160zM80 700v-700h160v700h-160z" />
    <glyph glyph-name="j" unicode="j" horiz-adv-x="520" 
d="M290 917v-160h160v160h-160zM290 700l-0.000976562 -759c0 -28 -0.166992 -47.5 -0.5 -58.5s-3.16602 -24.5 -8.49902 -40.5s-13.666 -27.667 -24.999 -35c-12 -8 -26.5 -10.667 -43.5 -8s-33.5 7.83398 -49.5 15.501s-30.667 17.167 -44 28.5l-34 -63.5l-35 -64.5
l36 -24c32.667 -22 68.834 -36.167 108.501 -42.5s77.5 -4.16602 113.5 6.50098c31.333 10 57.666 25.167 78.999 45.5s36.666 43.166 45.999 68.499c11.333 29.333 17 70.666 17 123.999v807h-160z" />
    <glyph glyph-name="k" unicode="k" horiz-adv-x="762" 
d="M60 1054v-1054h161l-1 284l285 -284h227l-374 370l358 330h-223l-273 -251v605h-160z" />
    <glyph glyph-name="l" unicode="l" horiz-adv-x="332" 
d="M80 1054v-935l21 -119h161l-22 119v935h-160z" />
    <glyph glyph-name="m" unicode="m" horiz-adv-x="1202" 
d="M847 727c-82.667 -2 -163.666 -35.002 -242.999 -99.002c-63.333 70.667 -139.333 102.667 -228 96c-30.667 -2 -62.667 -11 -96 -27s-58 -31.667 -74 -47l-10 50h-136v-700h157c-0.666992 222.667 -1 389.667 -1 501c43.333 44.667 93 68 149 70
c58 2 100.333 -12.333 127 -43c24 -27.333 36 -68.666 36 -123.999v-404h156v401c0 34.667 -3.33301 65.334 -10 92.001c42 48.667 95 75.667 159 81c54 4 95.333 -9.66699 124 -41c25.333 -27.333 38.333 -69 39 -125v-408h156v403c0 108 -30 190.333 -90 247
c-56.667 53.333 -128.334 79 -215.001 77v0z" />
    <glyph glyph-name="n" unicode="n" horiz-adv-x="768" 
d="M219 0l0.000976562 499.998c14 16.667 36.167 31.834 66.5 45.501s62.5 21.834 96.5 24.501c56 4.66699 101.667 -10.333 137 -45c28.667 -27.333 43 -68 43 -122v-403h156v0v0v0v0v0v0v0v0v0v0v0v0v0v0v0v0v0v0v0v0v0v0v0v0v1v0v0v0v0v0v0v0v0v0v0v1v0v0v0v0v0v0v1v0v0
v0v0v0v1v0v0v0v0v416c0 97.333 -29.333 173.5 -88 228.5s-134.667 79.833 -228 74.5c-80.667 -4.66699 -145.334 -29 -194.001 -73l-10 49h-138v-699h159z" />
    <glyph glyph-name="o" unicode="o" horiz-adv-x="832" 
d="M675 618c-71.333 70.667 -157.666 105.999 -258.999 105.999s-187.666 -35.167 -258.999 -105.5s-107 -160.166 -107 -269.499s35.667 -199 107 -269s157.666 -105 258.999 -105s187.666 35 258.999 105s107 159.667 107 269s-35.667 199 -107 269zM566 511.999
c39.333 -38 59 -92.333 59 -163s-19.667 -125 -59 -163c-37.333 -36 -87.333 -54 -150 -54s-112.667 18 -150 54c-39.333 38 -59 92.333 -59 163s19.667 125 59 163c38 36.667 88 55 150 55s112 -18.333 150 -55z" />
    <glyph glyph-name="p" unicode="p" horiz-adv-x="819" 
d="M425 727c-77.333 1.33301 -151.334 -20.332 -222.001 -64.999l-10 38h-133v-1052h159v372c56.667 -28.667 115.334 -44 176.001 -46c104.667 -4 193.167 28.333 265.5 97s108.5 159 108.5 271c0 110.667 -30.833 202.167 -92.5 274.5s-145.5 109.166 -251.5 110.499z
M387.999 575.002c66 0 118.669 -18.667 158.002 -56c40.667 -38.667 61 -93.667 61 -165s-20.333 -126.333 -61 -165c-39.333 -37.333 -92 -56 -158 -56c-34.667 0 -67.834 7 -99.501 21s-54.834 30 -69.501 48v303c18 20 42 36.667 72 50s62.333 20 97 20z" />
    <glyph glyph-name="q" unicode="q" horiz-adv-x="843" 
d="M394 727c77.333 1.33301 151.333 -20.332 222 -64.999l10 38h134v-933l23 -119h-159l-23 119v253c-56.667 -28.667 -115.667 -44 -177 -46c-104.667 -4 -193.167 28.333 -265.5 97s-108.5 159 -108.5 271c0 110.667 30.833 202.167 92.5 274.5
s145.5 109.166 251.5 110.499zM431 575.002c-65.333 0 -117.666 -18.667 -156.999 -56c-41.333 -39.333 -62 -94.333 -62 -165s20.667 -125.667 62 -165c39.333 -37.333 91.666 -56 156.999 -56c34.667 0 68 7 100 21s55.333 30 70 48v303c-18 20 -42 36.667 -72 50
s-62.667 20 -98 20z" />
    <glyph glyph-name="r" unicode="r" horiz-adv-x="526" 
d="M216 652l-10.999 48.001h-145v-700h164v507c35.333 31.333 69.666 50.833 102.999 58.5s75.666 9.5 126.999 5.5c4 17.333 14.667 66.666 32 147.999c-46 8 -93.167 6.16699 -141.5 -5.5s-91.166 -32.167 -128.499 -61.5z" />
    <glyph glyph-name="s" unicode="s" horiz-adv-x="714" 
d="M349 723c-62 -2 -115.999 -15.999 -161.999 -41.999c-58 -38 -89.667 -90.333 -95 -157c-6.66699 -82.667 27 -143.334 101 -182.001c42 -21.333 91.833 -39.666 149.5 -54.999s91.834 -25 102.501 -29c42.667 -16 61.667 -39.667 57 -71
c-4 -25.333 -18.5 -42.833 -43.5 -52.5s-55.5 -12.5 -91.5 -8.5c-44 4.66699 -82.667 14.334 -116 29.001c-54 21.333 -96.333 46 -127 74l-36 -63l-38 -64c37.333 -35.333 86.166 -65 146.499 -89s116.166 -36.667 167.499 -38c59.333 -2 114 8.33301 164 31
c38.667 18 69.667 44.167 93 78.5s35.666 71.5 36.999 111.5c4 87.333 -37 150 -123 188c-32 14 -68.333 26.167 -109 36.5s-74.167 19.166 -100.5 26.499s-44.833 16.333 -55.5 27c-11.333 11.333 -17.5 24 -18.5 38s2.5 26.333 10.5 37c15.333 21.333 45 32.666 89 33.999
c71.333 -0.666992 142.333 -25 213 -73l74 116c-89.333 68 -185.666 100.333 -288.999 97z" />
    <glyph glyph-name="t" unicode="t" horiz-adv-x="594" 
d="M143 916l0.000976562 -216.999h-93v-135h93v-341c0 -54 5.66699 -95.667 17 -125c21.333 -55.333 63 -93 125 -113c36 -10.667 73.833 -12.834 113.5 -6.50098s75.834 20.5 108.501 42.5l37 24l-35 64.5l-34 63.5c-22 -18 -45.333 -31 -70 -39s-47.334 -7 -68.001 3
c-14.667 10 -23.834 24.167 -27.501 42.5s-5.5 44.5 -5.5 78.5v13v293h196v135h-196v217h-161z" />
    <glyph glyph-name="u" unicode="u" horiz-adv-x="768" 
d="M549 699l-0.000976562 -500c-14 -16.667 -36.333 -32 -67 -46s-62.667 -22.333 -96 -25c-56 -4.66699 -101.667 10.333 -137 45c-28.667 27.333 -43 68 -43 122v404h-156v-421c0 -97.333 29.333 -173.5 88 -228.5s134.667 -79.833 228 -74.5
c80.667 4.66699 145.334 29 194.001 73l10 -48h138v699h-159z" />
    <glyph glyph-name="v" unicode="v" horiz-adv-x="786" 
d="M30 699l290 -699h146l290 699h-172l-191 -468l-191 468h-172z" />
    <glyph glyph-name="w" unicode="w" horiz-adv-x="1150" 
d="M504 699l-153 -443l-150 443h-171l245 -699h149l151 431l151 -431h149l245 699h-171l-150 -443l-153 443h-142z" />
    <glyph glyph-name="x" unicode="x" horiz-adv-x="874" 
d="M42 0l290 349l-302 350h206l201 -237l201 237h206l-302 -350l290 -349h-204l-191 233l-191 -233h-204z" />
    <glyph glyph-name="y" unicode="y" horiz-adv-x="814" 
d="M30 699l289 -699l-173 -418h180l458 1117h-185l-191 -488l-194 488h-184z" />
    <glyph glyph-name="z" unicode="z" horiz-adv-x="710" 
d="M68 699v-146h350l-368 -453v-100h610v146h-367l367 452v101h-592z" />
    <glyph glyph-name="braceleft" unicode="{" horiz-adv-x="468" 
d="M259 1241c-34.667 0 -63 -12.999 -85 -38.999c-20 -24 -30 -55.667 -30 -95v-428c0 -28 -5.66699 -51.333 -17 -70s-23.333 -32.334 -36 -41.001l-61 -41l61 -41c7.33301 -4.66699 14.5 -11 21.5 -19s14 -20.333 21 -37s10.5 -35 10.5 -55v-428c0 -39.333 10 -71 30 -95
c22.667 -26.667 51 -40 85 -40h159v148h-107v415c0 59.333 -16 110 -48 152c32 42 48 92.667 48 152v411c0 2 8.83301 3.33301 26.5 4s35.167 1 52.5 1l27 -1v147h-158z" />
    <glyph glyph-name="bar" unicode="|" horiz-adv-x="318" 
d="M80 1243v-1432h158v1432h-158z" />
    <glyph glyph-name="braceright" unicode="}" horiz-adv-x="468" 
d="M209 1241c34.667 0 63 -12.999 85 -38.999c20 -24 30 -55.667 30 -95v-428c0 -28 5.66699 -51.333 17 -70s23.333 -32.334 36 -41.001l61 -41l-61 -41c-7.33301 -4.66699 -14.5 -11 -21.5 -19s-14 -20.333 -21 -37s-10.5 -35 -10.5 -55v-428c0 -39.333 -10 -71 -30 -95
c-22.667 -26.667 -51 -40 -85 -40h-159v148h107v415c0 59.333 16 110 48 152c-32 42 -48 92.667 -48 152v411c0 2 -8.83301 3.33301 -26.5 4s-35.167 1 -52.5 1l-27 -1v147h158z" />
    <glyph glyph-name="asciitilde" unicode="~" horiz-adv-x="514" 
d="M344 443c-5.33301 -17.333 -9.33496 -30 -12.002 -38s-8.33398 -12.667 -17.001 -14c-5.33301 -0.666992 -10.333 0.666016 -15 3.99902c-37.333 30 -76.666 42.333 -117.999 37c-28.667 -4 -53.667 -15 -75 -33s-36.333 -40.333 -45 -67l-12 -39l60 -18.5l60 -18.5
l12 37c2.66699 8 8.33398 12.667 17.001 14c5.33301 0.666992 10.333 -0.666016 15 -3.99902c36.667 -29.333 76 -41.333 118 -36c28 4 52.833 15.167 74.5 33.5s36.834 40.5 45.501 66.5l12 38c-13.333 4 -33.333 10.333 -60 19s-46.667 15 -60 19z" />
    <glyph glyph-name="sterling" unicode="&#xa3;" horiz-adv-x="896" 
d="M514 1074c-108 1.33301 -193.999 -27.3311 -257.999 -85.998c-69.333 -63.333 -104 -155.666 -104 -276.999c0 -20 1.33301 -48 4 -84h-106v-148h120c14 -90.667 16.333 -176.334 7 -257.001s-30.333 -154.667 -63 -222h138h565v151h-484
c15.333 79.333 16.666 188.666 3.99902 327.999h393v148h-407c-2.66699 37.333 -4 65 -4 83c0 72 17.333 124.667 52 158c34 32.667 82.667 47.667 146 45c76 -3.33301 152 -47 228 -131l45.5 72l45.5 72c-61.333 51.333 -117.333 88.666 -168 111.999s-102 35.333 -154 36z
" />
    <glyph glyph-name="brokenbar" unicode="&#xa6;" horiz-adv-x="318" 
d="M80 1054v-418h158v418h-158zM80 418v-418h158v418h-158z" />
    <glyph glyph-name="logicalnot" unicode="&#xac;" horiz-adv-x="936" 
d="M60 644v-141h712v-93h104v234h-104h-712z" />
    <glyph glyph-name=".null" horiz-adv-x="0" 
 />
    <glyph glyph-name="nonmarkingreturn" horiz-adv-x="1099" 
 />
    </font>
</defs>
</svg>
